<svg xmlns="http://www.w3.org/2000/svg" version="1.1" viewBox="-5.0 -10.0 110.0 135.0">
 <path d="m72.602 63.379s-0.039062-0.050781-0.058593-0.070312c-0.82031-1-2.7383-3.3398-7.9297-4.9414-2.1484-0.66016-1.9219-8.1719-1.0781-13.32 1.3086-0.25 2.4414-0.60156 3.4297-0.96875 1.3984-0.51953 2.8906-2.0312 2.8984-3.8203 0.019531-2.6719-3.0703-3.3789-5.3984-3.6797-7.2891-0.94141-9.5508-2.4414-9.8086-2.6289-0.28906-0.32812-0.78125-0.44141-1.1992-0.23828-0.48828 0.25-0.69922 0.85156-0.44922 1.3398 0.42188 0.85156 3.8398 2.5586 11.199 3.5117 1.6719 0.21875 3.6602 0.67969 3.6602 1.6797 0 0.73047-0.75 1.6484-1.5898 1.9609-1.9102 0.71094-6.3789 2.3594-14.809-0.019531-0.53125-0.14844-1.0781 0.16016-1.2305 0.69141-0.14844 0.53125 0.16016 1.0781 0.69141 1.2305 3.4102 0.96094 6.2383 1.3203 8.6016 1.3203 0.69141 0 1.3281-0.039062 1.9414-0.089843-0.57812 3.8086-1.6406 13.648 2.5586 14.941 4.6211 1.4219 6.2109 3.3594 6.9688 4.2891 0.23828 0.28906 0.41016 0.5 0.62891 0.66016 0.19922 0.14063 0.44922 0.21094 0.69922 0.17969 2.0703-0.23047 8.0898-0.28125 8.6719 2.5 0.089844 0.44141-0.011719 0.64062-0.10938 0.76953-0.73828 0.96094-3.8594 1.1094-6.1289 1.2188-1.3086 0.058594-2.5391 0.12109-3.5391 0.30078-0.92188 0.16016-2.0586 0.39063-3.2891 0.64063-3.3984 0.69922-7.5703 1.5391-9.8711 1.3906-3.6602-4.5-6.3086-6.3906-6.3398-6.4102-0.46094-0.28906-1.0586-0.14844-1.3594 0.30078-0.30078 0.46094-0.17188 1.0703 0.28125 1.3789 0.039063 0.03125 4.0898 2.9609 9.1211 10.371 3.5117 5.1602 7.1406 6.3906 9.3086 7.1289 0.60156 0.19922 1.4102 0.48047 1.5 0.67188 0.19922 0.42969 0.19141 1.1602-0.30078 1.7383-0.46875 0.55859-2.0898 1.7383-6.9297 0.5-3.5391-0.91016-5.3203-1.4883-7.1992-2.1094-2.3086-0.76172-4.6992-1.5391-10.52-2.9492-10.301-2.4805-14.801-7.7812-18.52-12.988-1.1992-1.6797-11.461-16.922-2.5-33.941 7.2305-13.719 19.809-16.852 19.941-16.879 0.53906-0.12891 0.87109-0.67187 0.73828-1.1992-0.12891-0.53906-0.66016-0.87109-1.1992-0.73828-0.55078 0.12891-13.578 3.3281-21.25 17.891-8.1992 15.559-1.2812 29.699 1.6211 34.48-0.011719 1.3203-0.23047 8.0586-3.2383 11.48-0.62891 0.71875-1.3711 1.4414-2.0703 2.1406-2.5898 2.5586-5.2695 5.2109-3.6211 8.1797 0.53125 0.94922 1.4492 1.5312 2.6797 1.6797 0.21875 0.03125 0.44141 0.039063 0.67188 0.039063 3.2109 0 7.6484-2.5 10.039-5.0586 2.1992-2.3594 3.5586-4.2891 4.8281-8.1211 2.8906 2.0703 6.5391 3.8281 11.41 5.0117 5.7383 1.3789 8.0898 2.1484 10.359 2.8984 1.8281 0.60156 3.7188 1.2188 7.3281 2.1484 1.6914 0.42969 3.0898 0.60938 4.25 0.60938 2.5703 0 3.9609-0.87109 4.7109-1.7695 1.0508-1.25 1.0508-2.8398 0.57812-3.8594-0.44141-0.96875-1.4805-1.3203-2.6719-1.7305-2.0586-0.69922-5.1602-1.7617-8.2891-6.3594-0.62109-0.91016-1.2188-1.75-1.8086-2.5312 2.5508-0.16016 5.8906-0.83984 8.7109-1.4219 1.2109-0.25 2.3203-0.46875 3.2305-0.62891 0.87891-0.14844 2.0586-0.21094 3.3008-0.26953 3.1016-0.14844 6.3086-0.30859 7.6211-1.9883 0.35156-0.46094 0.73047-1.25 0.48047-2.4102-0.94922-4.5391-8.1992-4.3008-10.34-4.1211zm-45.152 23.191c-2.3711 2.5391-6.7383 4.6914-9 4.3984-0.76953-0.089844-1.0391-0.42188-1.1719-0.67188-0.85156-1.5312 0.67188-3.2109 3.2812-5.7812 0.73047-0.71875 1.4883-1.4688 2.1719-2.2383 2.4492-2.7812 3.3008-7.1719 3.5898-10.09 1.6211 2.1914 3.4297 4.3516 5.7617 6.3086-1.2305 3.9688-2.4609 5.75-4.6211 8.0703z"/>
 <path d="m59.898 22.73c0.19922 0.21875 0.46875 0.32812 0.73828 0.32812 0.23828 0 0.48047-0.078125 0.67188-0.26172 0.41016-0.37109 0.44141-1 0.070312-1.4102-1.5781-1.7617-1.7109-1.8281-2.1914-1.8281-0.55078 0-1 0.44922-1 1 0 0.35156 0.17969 0.66016 0.46094 0.83984 0.19141 0.17969 0.78125 0.80078 1.2383 1.3203z"/>
 <path d="m68.879 26.43h0.12109c0.5 0 0.92969-0.37109 0.98828-0.87891 0.070313-0.55078-0.32031-1.0508-0.87109-1.1211l-2.0195-0.25c-0.55078-0.058594-1.0508 0.32031-1.1211 0.87109-0.070312 0.55078 0.32031 1.0508 0.87109 1.1211l2.0195 0.25z"/>
 <path d="m84.762 27.18c-0.28125-0.80859-0.85156-1.4297-1.6484-1.8008-1.6094-0.76172-3.9102-0.37109-5.3594 0.011719-0.039062-0.53125-0.089844-0.94922-0.14062-1.2188 0.67188-1.6719 2.6406-7.1797 0.83984-9.7109-1.8906-2.6484-7.4297-0.070313-9.5117 1.0391-0.25-0.17969-0.53125-0.35938-0.76953-0.51172 0.32812-1.8984 0.80078-6.3008-1.6602-7.6289-2.5898-1.3984-6.9492 1.5117-8.2383 2.4492-8.8281 1.25-11.621 7.1797-11.73 7.4297-0.23047 0.5 0 1.0898 0.48828 1.3203 0.5 0.23047 1.0898 0 1.3281-0.48828 0.10156-0.21875 2.5508-5.2891 10.43-6.3203 0.17188-0.019531 0.32813-0.089844 0.46875-0.19141 1.8281-1.3711 5.1016-3.1016 6.3008-2.4414 1.1289 0.60937 0.98047 4.0312 0.51953 6.1406-0.089844 0.42188 0.089844 0.85156 0.46094 1.0703 0.53125 0.32031 1.3984 0.87891 1.6484 1.1094 0.32031 0.28125 0.78906 0.32812 1.1602 0.12109 2.9805-1.6914 6.7812-2.9102 7.4805-1.9414 0.94922 1.3281-0.12109 5.5117-1.1797 8.0586-0.078126 0.19141-0.10156 0.41016-0.050782 0.62109 0.019532 0.10156 0.21875 1 0.17969 2.3398v0.089843c-0.089844 2.6211-1.0586 6.9219-5.8398 10.621-0.44141 0.33984-0.51953 0.96875-0.17969 1.3984 0.19922 0.25 0.48828 0.39062 0.78906 0.39062 0.21094 0 0.42969-0.070313 0.60938-0.21094 0.89062-0.69141 1.6602-1.3984 2.3398-2.1211 6.1406-2.0195 9.8594-4.25 11.051-6.6484 0.48828-0.98828 0.55859-2 0.21094-2.9883zm-2 2.1016c-0.75 1.5117-3.2188 3.1094-7.0781 4.6289 1.3984-2.3594 1.9219-4.6406 2.0586-6.4414 1.2188-0.35938 3.3789-0.82812 4.5312-0.28906 0.32031 0.14844 0.5 0.35156 0.60937 0.64844 0.17188 0.48047 0.12891 0.94141-0.12109 1.4414z"/>
</svg>