<svg xmlns="http://www.w3.org/2000/svg" version="1.1" viewBox="-5.0 -10.0 110.0 135.0">
 <path d="m51.371 26.75c0 0.64844 0.53125 1.1797 1.1797 1.1797 0.64844 0 1.1797-0.53125 1.1797-1.1797s-0.53125-1.1797-1.1797-1.1797c-0.64844 0-1.1797 0.53125-1.1797 1.1797z"/>
 <path d="m61 23.121c0 1.5703-2.3594 1.5703-2.3594 0 0-1.5742 2.3594-1.5742 2.3594 0z"/>
 <path d="m77.512 44.012c0.39062-1.3789 0.51172-2.6602 0.48828-3.7617-0.078125-3.8008-1.8594-7.0117-3.5703-8.2109-1.9609-1.3789-9-2.4297-13.98 3.25-2.1719 2.4688-3.4805 5.2305-3.9297 8.1992-1.25-1.1914-2.1211-2.3203-2.2812-2.5312-0.32812-0.44141-0.96094-0.51953-1.3984-0.19141-0.44141 0.32812-0.51953 0.96094-0.19141 1.3984 0.53125 0.69922 3.3516 4.2695 6.7188 5.75 0.98828 0.42969 1.6094 0.94141 1.8086 1.4492 0.17188 0.46094-0.03125 0.87891-0.10156 1.0391-0.019531 0.019531-1.5898 1.7695-5.8398 0.019531-0.10156-0.058594-0.19922-0.10938-0.30859-0.14062-0.91016-0.39844-1.9297-0.94922-3.0898-1.7109-0.46094-0.30078-1.0781-0.17969-1.3906 0.28125-0.30078 0.46094-0.17969 1.0781 0.28125 1.3906 0.71094 0.46875 1.3711 0.85156 2 1.1914-0.57031 0.53125-1.1406 1.25-1.3594 2.1406-0.17188 0.69141-0.19922 1.7617 0.64844 2.9609 1.1211 1.5898 2.8711 1.6719 4.2695 1.7305 0.85156 0.039063 1.6406 0.070313 2 0.42188 0.12109 0.12109 0.35938 0.53906 0.55078 0.87109 0.71094 1.2617 1.7812 3.1719 3.8984 3.3398h0.25c0.87109 0 1.6719-0.37109 2.3203-1.0781 1.0312-1.1289 1.5391-2.9492 1.6797-4.2891 1.8086 0.42969 2.6484 0.48047 2.6992 0.48047h0.039062c0.53125 0 0.96875-0.42188 1-0.96094 0.019532-0.55078-0.41016-1.0117-0.96094-1.0391-0.011719 0-1.5117-0.078125-5-1.1719-0.80078-0.25-1.8203-0.71094-2.1602-1.5-0.28906-0.67188 0-1.3789 0.14063-1.6602 0.39062-0.76953 1.8906-0.44141 2.3398-0.32031 1.5 0.39844 4.6797 0.96875 6.0586 0.80078 0.058594 0 0.12891 0 0.19141-0.019531 0.019531 0 0.03125-0.019531 0.050781-0.019531 0.078126-0.019532 0.16016-0.058594 0.23828-0.10156 0.03125-0.019531 0.070312-0.03125 0.10156-0.050781 0 0 0.019532 0 0.03125-0.011719 1.9805-1.5312 3.3594-3.1211 4.3086-4.6797 0.83984 6.3594-0.12891 14.238-2.7812 22.148-1.4805 4.4219-3.2305 7.8008-4.6289 10.52-1.8086 3.5-3 5.8086-2.1797 7.7695 0.35938 0.85156-0.058594 1.0781-0.19922 1.1484-0.55078 0.30078-1.7383 0.19141-2.5312-0.98828-0.57031-0.85156-1.1484-3.2383-1.6484-5.3516-0.98828-4.1406-1.6719-6.7188-3.1016-7.3789-1.2891-0.60156-2.5703 0.78125-2.9883 1.2305-1.9492 2.0898-6.0586 9.0898-5.0586 10.891 0.30078 0.55078 0.28906 1.1719-0.039062 1.4883-0.39844 0.39062-1.2305 0.30078-2.1797-0.23047-3.5117-1.9805-5.0117-10.078-4.8789-26.25 0.070313-8.0391 1.2383-14.539 3.5781-19.879 0.21875-0.51172 0-1.1016-0.51172-1.3203-0.5-0.21875-1.1016 0-1.3203 0.51172-2.25 5.1289-3.4609 11.262-3.6992 18.672-0.050781 0.050782-0.10938 0.089844-0.16016 0.14844-0.03125 0.039062-3.0117 4.1016-10.988 4.9219-5.5312 0.57031-8.4688 2.0508-9 4.5391-0.28906 1.3789-0.039063 2.5391 0.75 3.4609 1.2305 1.4297 3.6211 2.1094 7.4609 2.1094 0.69922 0 1.4492-0.019531 2.25-0.070312 4.7695-0.26953 8.2695-1.5312 9.8711-2.2109 0.58984 10.07 2.3711 15.238 5.6719 17.109 1.7891 1.0117 3.5 0.98047 4.5703-0.078125 0.94922-0.94141 1.1211-2.4414 0.44141-3.7695 0-1.5898 3.9219-8.6484 5.4883-9.3711 0.64844 0.69141 1.4297 3.9609 1.9102 5.9492 0.60156 2.4883 1.1602 4.8516 1.9297 6 0.92969 1.3906 2.3203 2.0117 3.5703 2.0117 0.57031 0 1.1211-0.12891 1.5703-0.37891 1.3086-0.69922 1.7383-2.1484 1.1016-3.6797-0.46094-1.0898 0.62109-3.1797 2.1211-6.0781 1.4297-2.7695 3.2188-6.2305 4.75-10.801 3.1719-9.4688 4.0117-18.941 2.3203-26.059zm-13.34 12.75c0.30859 0.10156 0.57812 0.17188 0.85938 0.26172-0.050781 0.89062-0.41016 2.6016-1.1992 3.4688-0.39062 0.42969-0.71875 0.44922-0.94141 0.42969-1.0586-0.089844-1.7617-1.3281-2.3203-2.3281-0.30078-0.53125-0.55859-0.98828-0.87891-1.3086-0.89844-0.89062-2.1797-0.94922-3.3086-1-1.3516-0.058594-2.2109-0.14844-2.7305-0.89062-0.32812-0.46875-0.44141-0.89844-0.33984-1.3203 0.17188-0.71094 0.91016-1.3398 1.4414-1.6914 1.5586 0.60938 2.8711 0.83984 3.9219 0.83984 0.69141 0 1.2695-0.089844 1.7617-0.23047 0.03125 0 0.050781-0.019532 0.078125-0.03125 0.019531 0.37109 0.10156 0.76172 0.26953 1.1602 0.51172 1.1992 1.6484 2.0781 3.3984 2.6289zm6.5781-6.5625c-0.85938 0.050781-3.3203-0.28125-5.1406-0.76953-0.89844-0.23828-1.7109-0.28125-2.4219-0.17188-0.03125-0.19141-0.070312-0.39062-0.14844-0.58984-0.39062-1.0508-1.3594-1.9219-2.8789-2.5898-0.62891-0.26953-1.2383-0.64844-1.8086-1.0586 0.011719-0.078125 0.019532-0.17969 0.03125-0.32031 0.23047-2.9414 1.4297-5.6602 3.5703-8.1016 4.1289-4.7109 10.02-3.8516 11.328-2.9297 1.0781 0.76172 2.6484 3.3203 2.7188 6.6211 0.058594 2.5898-0.82031 6.3984-5.2383 9.8984zm-38.66 23.172c-5.4492 0.30859-7.3984-0.55859-8.0781-1.3516-0.23047-0.26953-0.51953-0.75-0.30859-1.7383 0.30859-1.4688 2.8906-2.5195 7.25-2.9688 5.6797-0.57812 9.1094-2.6914 10.891-4.1914-0.011719 2.8789 0.019531 5.5117 0.12109 7.8906-0.67188 0.32812-4.3711 2.0508-9.8711 2.3711z"/>
 <path d="m47.34 39.531c0.14844 0.089844 0.32031 0.12891 0.48828 0.12891 0.35156 0 0.69141-0.17969 0.87109-0.51172 0.26953-0.48047 0.10156-1.0898-0.37891-1.3594-0.21875-0.12109-5.3203-3.1406-3.7695-10.379 0.039063-0.19141 0.019531-0.39062-0.050781-0.57031-1.3516-3.4805-2.3086-7.0195-2.1914-8 1.0703-0.37891 5.1914 0.089844 6.2109 0.41016 0.32031 0.10156 0.66016 0.039062 0.92188-0.17188 0.03125-0.019531 2.8281-2.2305 5.8281-2.75 0.37109-0.058594 0.67188-0.32812 0.78125-0.69141 0.60156-1.9688 1.4219-3.9492 1.8789-4.5703 0.87109 0.30078 3.0508 1.75 5.0508 5.1211 0.14062 0.23047 0.35938 0.39844 0.62109 0.46094 0.32031 0.078124 7.9297 2.1094 5.9102 12.039-0.10938 0.53906 0.23828 1.0703 0.78125 1.1797 0.55078 0.10937 1.0703-0.23828 1.1797-0.78125 2.1094-10.41-5.1211-13.609-6.9688-14.25-2.2383-3.6211-5.0703-5.6914-6.6602-5.8203-0.53125-0.050781-1.75-0.14062-3.5312 5.4688-2.5703 0.60938-4.8516 2.1016-5.7305 2.7383-1.5781-0.32031-6.0391-1.0195-7.5703 0.050782-0.51172 0.35156-1.8516 1.2891 1.5117 10.02-1.6484 8.5117 4.7383 12.211 4.8086 12.238z"/>
 <path d="m71.879 42.371c-5.1016-0.28125-6.2109-3.1719-6.2695-3.3203-0.17969-0.51953-0.73047-0.80078-1.2617-0.62891-0.51953 0.17188-0.80859 0.73828-0.62891 1.2617 0.058594 0.17969 1.5 4.3203 8.0508 4.6797h0.058594c0.53125 0 0.96875-0.41016 1-0.94922 0.03125-0.55078-0.39062-1.0195-0.94141-1.0508z"/>
 <path d="m70.059 38.871c0.57031 0.12109 1.1406-0.23828 1.2617-0.82031 0.12109-0.57812-0.23828-1.1406-0.82031-1.2617-0.57031-0.12109-1.1406 0.23828-1.2617 0.82031-0.12109 0.57812 0.23828 1.1406 0.82031 1.2617z"/>
</svg>