<svg xmlns="http://www.w3.org/2000/svg" version="1.1" viewBox="-5.0 -10.0 110.0 135.0">
 <path d="m71.949 34.449c-0.30078-2.4688-1.8281-12.449-7.0508-14.102-5.1719-1.6289-11.34 6-12.98 8.1992-3.2188-0.30859-6.2891 0.17969-7.5898 0.44141-1.4297-1.8203-6.3711-7.6016-10.93-6.6602-5.3594 1.1094-5.6211 13.609-5.6289 15.031 0 0.55078 0.44141 1 0.98828 1.0117 0.51172-0.019532 1-0.44141 1.0117-0.98828 0.039063-4.75 1.1719-12.5 4.0391-13.09 3.3398-0.69922 7.8516 4.3789 9.3008 6.3906 0.23828 0.32812 0.64844 0.48047 1.0508 0.39062 0.039063 0 4.1211-0.98047 8.1094-0.46875 0.35938 0.050781 0.73047-0.10938 0.94141-0.41016 1.8516-2.6016 7.4297-9.1016 11.102-7.9297 3.7109 1.1719 5.3789 9.6602 5.7109 12.828 0.03125 0.28906 0.19141 0.55859 0.42969 0.71875 0.23047 0.16016 5.6406 4 3.4883 13.891-2.1406 9.8711-11.879 10.699-12.289 10.73-0.55078 0.039062-0.96094 0.51953-0.92188 1.0703 0.039062 0.53125 0.48047 0.92969 1 0.92969h0.070312c0.12109 0 11.641-0.94922 14.102-12.301 2.1289-9.8203-2.5195-14.512-3.9414-15.68z"/>
 <path d="m36.051 60.809c-6.6914-1.5781-8.5312-5.3984-9.3398-8.1289-1.7891-6.0898 1.1797-11.5 1.2109-11.559 0.26953-0.48047 0.10156-1.0898-0.37891-1.3594s-1.0898-0.10156-1.3594 0.37891c-0.14062 0.25-3.4297 6.1797-1.3906 13.109 1.4805 5.0391 5.0195 8.1484 10.801 9.5117 0.078125 0.019531 0.14844 0.03125 0.23047 0.03125 0.44922 0 0.85938-0.30859 0.96875-0.76953 0.12891-0.53906-0.21094-1.0781-0.73828-1.1992z"/>
 <path d="m41.629 47.34h-4.0195c-0.55078 0-1 0.44922-1 1 0 0.55078 0.44922 1 1 1h4.0195c0.55078 0 1-0.44922 1-1 0-0.55078-0.44922-1-1-1z"/>
 <path d="m59.469 47.012-4.3984 0.32812c-0.55078 0.039062-0.96094 0.51953-0.92187 1.0703 0.039062 0.53125 0.48047 0.92969 1 0.92969h0.078124l4.3984-0.32812c0.55078-0.039063 0.96094-0.51953 0.92188-1.0703-0.039063-0.55078-0.51172-0.96875-1.0703-0.92188z"/>
 <path d="m82.18 28.82c-9.1992-15.512-29.379-21.969-46.949-15.031-17.051 6.7383-26.629 26.578-22.27 46.16 1.8711 8.4102 7.1211 18.539 21.578 19.031h0.32813c0.89062 0.039062 2.1016 0.089843 3.4219 0.03125 0.23047 0.42188 0.60938 1.1211 0.96875 1.7109-0.67969 0.80078-1.6602 2.2383-1.5 3.8008 0.078126 0.78125 0.48047 1.8906 1.9609 2.7812 1.6719 1 3.6094 0.71094 5.3281 0.46094 0.75-0.10938 1.4609-0.21875 2.1094-0.21875 0.71094 0 1.4688 0.30078 2.2812 0.62109 0.98828 0.39062 2.0703 0.82031 3.3203 0.82031 0.51953 0 1.0703-0.078125 1.6484-0.26172 1.2188-0.37891 2.1094-1.5117 2.3281-2.9297 0.25-1.6211-0.42188-3.2695-1.8086-4.5508 0.35938-0.51172 0.83984-1.2188 1.3086-1.9688 0.48047 0.03125 0.94922 0.039062 1.4219 0.039062 2.7383 0 5.1992-0.39844 6.3398-0.62109 6.6406-1.2695 16.02-6.8203 20.219-13.879 4.4609-7.5195 6.6094-21.449-2.0117-35.988zm-29.219 53.418c1.8516 1.2891 1.8594 2.6992 1.7695 3.2383-0.10156 0.66016-0.46875 1.1797-0.94922 1.3281-1.3008 0.41016-2.3789-0.019532-3.6289-0.51172-0.94141-0.37109-1.9219-0.76172-3.0117-0.76172-0.78906 0-1.6094 0.12109-2.3984 0.23828-1.5195 0.21875-2.9609 0.44141-4.0117-0.19922-0.92188-0.55078-0.98047-1.0781-0.98828-1.2617-0.10938-1.0508 1.0508-2.3789 1.4688-2.7695 0.39844-0.37109 0.44141-0.98828 0.078124-1.3984-0.14062-0.17188-0.48047-0.71094-0.82031-1.3281 2.1289-0.28125 4.2695-0.92969 5.6992-2.3203 0.42969-0.42188 0.78125-0.89063 1.0508-1.3984 0.44141 0.78125 1.0508 1.4492 1.8281 2.0312 1.3789 1.0117 3.1289 1.5781 4.9492 1.8789-0.66016 0.98828-1.2383 1.7812-1.25 1.7891-0.16016 0.21875-0.23047 0.48828-0.19141 0.76172 0.039062 0.26953 0.19141 0.5 0.42187 0.66016zm4.4609-16.168c-2.75 0.10156-7.6016 0.62109-9.8008 3-0.17188 0.17969-0.32031 0.37109-0.46094 0.57031-0.26953-0.48047-0.62891-0.92188-1.0703-1.3203-1.8086-1.6484-4.7305-2.2188-7.0508-2.3984 0.26953-2.0391 1.1992-6.75 4.2383-9.4805 1.6797-1.5 3.7891-2.1992 6.2891-2.0586 2.8203 0.16016 7.8281 3.7617 7.8516 11.68zm25.047-2.2812c-3.8594 6.5-12.801 11.781-18.879 12.941-4.5 0.85938-10.379 1-13.371-1.1914-1.0586-0.76953-1.6406-1.7695-1.7891-3.0391-0.10156-0.82031 0.10937-1.4688 0.64844-2.0586 1.8008-1.9414 6.6484-2.3711 9.2812-2.3906h0.050781 0.019532 0.089843c0.30078 0 0.57031 0 0.80078 0.011719 0.53906 0.039062 1.0195-0.41016 1.0391-0.96094 0.019531-0.55078-0.39844-1.0117-0.94922-1.0391-0.019531-9.25-6.2383-13.48-9.7305-13.672-3.0508-0.17188-5.6602 0.69141-7.75 2.5703-3.6484 3.2812-4.6484 8.6914-4.9102 10.891-0.89062 0-1.4883 0.050782-1.5703 0.058594-0.55078 0.050782-0.96094 0.53125-0.91016 1.0781 0.050782 0.55078 0.53125 0.96094 1.0781 0.91016 0.058593 0 6.4492-0.51953 9.1211 1.9102 0.71875 0.66016 1.0781 1.4688 1.0898 2.4805 0 1.1719-0.33984 2.0781-1.0703 2.8008-2.2383 2.1797-7.5586 1.9883-9.8281 1.9102h-0.41016c-10.52-0.37109-17.121-6.25-19.621-17.469-4.1484-18.629 4.9102-37.48 21.059-43.871 16.66-6.5781 35.789-0.48047 44.488 14.191 8.7383 14.738 5.3789 28.27 2.0117 33.949z"/>
 <path d="m48.711 57.828c-0.82031 0-1.4805 0.66016-1.4805 1.4805 0 0.82031 0.66016 1.4805 1.4805 1.4805 0.82031 0 1.4805-0.66016 1.4805-1.4805 0-0.82031-0.66016-1.4805-1.4805-1.4805z"/>
</svg>