<svg xmlns="http://www.w3.org/2000/svg" version="1.1" viewBox="-5.0 -10.0 110.0 135.0">
 <path d="m29.641 26.121c0.55078 0.03125 1.0312-0.39062 1.0586-0.94141 0.12109-1.9609 0.94141-7.3086 3.2891-8.5586 3.2891-1.7617 7.3984 3.2383 7.4492 3.2891 0.23828 0.30078 0.62891 0.42969 1.0117 0.33984 3.8281-0.89844 8.9609-0.78125 9.0117-0.78125 0.32812 0 0.73828-0.19922 0.91016-0.53906 0.03125-0.050782 2.5898-4.9102 5.9805-4.5703 2.8086 0.28125 4.8516 6.0781 5.3398 8.0898 0.058594 0.23047 0.19141 0.42969 0.37891 0.57031 3.4688 2.5312 5.5781 6.3711 5.9414 10.809 0.37109 4.5195-1.1992 9.0195-4.1797 12.031-1.4805 1.5-3.3711 2.75-5.6016 3.7188-0.51172 0.21875-0.73828 0.80859-0.51953 1.3203 0.16016 0.37891 0.53125 0.60156 0.92187 0.60156 0.12891 0 0.26953-0.03125 0.39844-0.078125 2.4688-1.0703 4.5703-2.4688 6.2305-4.1484 3.3789-3.4219 5.1602-8.5 4.75-13.602-0.39844-4.9102-2.6914-9.1797-6.4688-12.051-0.48828-1.8398-2.6484-8.8203-6.9883-9.25-3.9414-0.39062-6.7305 3.5898-7.6406 5.0898-1.4297 0-5.1289 0.050781-8.3281 0.71094-1.3203-1.4414-5.5117-5.4805-9.5312-3.3203-3.75 2-4.2891 9.3711-4.3398 10.211-0.03125 0.55078 0.39062 1.0195 0.94141 1.0586z"/>
 <path d="m57.738 79.289c-0.14062-0.87891-0.48828-1.9297-1.2695-3.0586 0.16016-0.85938 1.1016-3.8789 6.75-8.4883 0.42969-0.35156 0.48828-0.98047 0.14062-1.4102-0.35156-0.42969-0.98047-0.48828-1.4102-0.14062-4.4805 3.6602-6.2891 6.4883-7.0312 8.2695-1.1094-1.0391-2.6211-2.0898-4.6914-3.1016-2.5781-1.2617-6.0391-2.4414-7.5195-2.8789-0.53125-0.16016-1.0898 0.14062-1.25 0.67188-0.16016 0.53125 0.14062 1.0898 0.67188 1.25 1.4219 0.42969 4.7617 1.5703 7.2188 2.7695 3.7695 1.8398 6.0391 4.1211 6.3984 6.4297 0.30078 1.9688-0.80859 3.3594-1.5 4.0195-2.3203 2.2109-12.91 3.1992-22.211-0.019532-5.8398-2.0195-13.07-6.3398-14.379-15.43-2.1094-14.629 7.1094-21.352 9.9805-23.059 1.9102 3.1602 5.2695 5.5508 10.051 7.1016 0.10156 0.03125 0.21094 0.050781 0.30859 0.050781 0.42188 0 0.80859-0.26953 0.94922-0.69141 0.17188-0.53125-0.12109-1.0898-0.64062-1.2617-5.0508-1.6289-8.3086-4.2188-9.7109-7.6992-2.8086-7 0.62109-13.41 0.64844-13.469 0.26172-0.48047 0.089843-1.0898-0.39844-1.3594-0.48828-0.26953-1.0898-0.089844-1.3594 0.39062-0.16016 0.28906-3.9102 7.2695-0.76172 15.16-3.0703 1.8594-13.328 9.3594-11.059 25.121 1.4492 10.09 9.3398 14.828 15.699 17.039 4.3516 1.5117 9.0781 2.1719 13.238 2.1719 5.0781 0 9.3086-0.98047 11-2.5898 1.6602-1.5781 2.4219-3.6797 2.1016-5.7695z"/>
 <path d="m72.879 43.328c-0.10938-0.070313-0.19141-0.12109-0.25-0.16016-0.089844-0.089844-0.21094-0.17188-0.33984-0.21875-0.51172-0.19922-1.0898 0.058593-1.2891 0.57812-0.30078 0.78906 0.35156 1.1992 0.82812 1.4883 5.7891 3.6016 14.641 11.941 8.9219 27.238-4.3789 11.73-19.551 12.238-21.91 11.551-0.53125-0.14844-1.0781 0.14844-1.2383 0.67969-0.16016 0.53125 0.14844 1.0781 0.67969 1.2383s1.5 0.26953 2.75 0.26953c5.7617 0 17.59-2.3203 21.602-13.039 6.2188-16.641-3.4297-25.711-9.7383-29.641z"/>
 <path d="m42.5 57.371c0.87891 0.58984 2.0312 0.55078 3.4219-0.10938 1.75-0.82812 2.8203-1.5 3.4219-1.9297 1.6992 1.1719 4 2.5 5.6797 2.5 0.67969 0 1.25-0.21875 1.6484-0.75 1.1992-1.6211 1.5-6.9102 0.17188-8.8516-0.55078-0.80859-1.3789-1.1289-2.2695-0.87891-2.5586 0.71094-4.3789 2.0703-5.3008 2.8789-0.42188-0.32031-0.96094-0.71875-1.3906-0.98828-0.64844-0.48047-3.6094-2.5117-5.5312-1.6016-0.60156 0.28125-1.3203 0.94922-1.3906 2.5117-0.14844 3.2891-0.12891 6.1094 1.5391 7.2188z"/>
 <path d="m42.449 32.09c0.14062-0.44141 0.10156-0.92188-0.10938-1.3281-0.44141-0.85156-1.4883-1.1914-2.3516-0.75-0.41016 0.21094-0.71875 0.57812-0.85938 1.0195s-0.10156 0.92188 0.10938 1.3281c0.21094 0.41016 0.57812 0.71875 1.0195 0.85938 0.17969 0.058594 0.35156 0.078125 0.53125 0.078125 0.26953 0 0.55078-0.070313 0.80078-0.19141 0.41016-0.21094 0.71875-0.57812 0.85938-1.0195z"/>
 <path d="m53.57 32.75c0.26953 0 0.53906-0.058594 0.80078-0.19141 0.85156-0.44141 1.1914-1.4883 0.75-2.3516-0.44141-0.85156-1.4883-1.1914-2.3516-0.75-0.41016 0.21094-0.71875 0.57812-0.85938 1.0195-0.14062 0.44141-0.10156 0.92188 0.10938 1.3281 0.30859 0.60156 0.92188 0.94141 1.5508 0.94141z"/>
</svg>