<svg xmlns="http://www.w3.org/2000/svg" version="1.1" viewBox="-5.0 -10.0 110.0 135.0">
 <path d="m83.969 35.422c-5.5586-1.3008-9.9297 0.39844-11.602 1.2188-1.3516-1.2812-5.0391-4.1211-11.191-4.1211h-0.078125c-7.1719 0.03125-10.941 4.4297-13.969 7.9688-0.67188 0.78906-1.3086 1.5312-1.9219 2.1484-2 2.0195-3.7695 2.4688-4.7109 2.5508-0.76953-5.9805-3.3984-10.52-5.3789-10.691-1.0703-0.078125-2.4219 1.1211-4.0312 3.6016-4.1211-0.94922-7.8203-0.23828-9.4219 0.17188-1.8516-3.1914-3.6406-3.3594-4.0117-3.3594-0.44141 0-0.73828 0.26953-1 0.53906-0.19141 0.19141-4.6211 4.8516-4.3906 13.809 0.070312 2.7695 0.42188 4.9297 0.87109 6.6016-2.2812 0.46875-7.1484 1.8398-7.1602 5.0312 0 0.75 0.26172 1.4219 0.76953 1.9219 0.57031 0.55859 1.3203 0.82031 1.9219 0.94141 0.12891 2.6797 3.0586 3.2383 5.6094 3.4219 2.5586 0.17969 6.3711 0.28125 10.441 0.28125 7.6484 0 16.199-0.33984 19.059-1.1016 1.0312 0.71875 2.7305 0.96875 5.0312 0.96875 2.0508 0 4.5508-0.19141 7.4219-0.41016 1.4219-0.10937 2.9102-0.21875 4.4297-0.32031 8.0781-0.51172 12.422-1.8281 15.238-7.9492 2.8086-6.1016 1.4297-12.57 0.78906-14.84 2.1406-0.96094 5.9883-1.4883 8.1719 0.94141 2.4414 2.7188 1.25 6.4609 0.14844 8.25-0.71094 1.1719-1.7109 2.1602-2.5781 3.0391-1.6289 1.6406-3.4805 3.5-1.7617 5.6797 0.42188 0.51953 1.4219 1.3281 3.4805 0.82031 3.7383-0.92188 8.4609-5.4297 9.5586-11.129 1.5195-7.8516-2.3984-14.281-9.7383-15.988zm-74.617 26.438c-0.37891-0.039063-0.92187-0.17188-1.1992-0.44141-0.089844-0.089844-0.17969-0.21875-0.17969-0.5 0-1.4297 3.2383-2.6406 5.8008-3.1289 0.32031 0.78906 0.64844 1.3984 0.94922 1.8789-2.2383 0.39844-4.1914 1.0195-5.1992 1.9883-0.070313 0.058594-0.10938 0.12891-0.17188 0.19922zm82.398-10.82c-1 5.1992-5.3281 8.8906-8.0781 9.5586-0.69141 0.17188-1.2383 0.12109-1.4297-0.12109-0.51953-0.66016-0.26953-1.1406 1.6094-3.0312 0.94922-0.96094 2.0312-2.0391 2.8711-3.4102 1.3789-2.25 2.8594-7.0312-0.37109-10.629-3.1406-3.5117-8.5508-2.6719-11.379-0.96094-0.41016 0.25-0.57812 0.73828-0.42188 1.1914 0.03125 0.070312 2.6016 7.5-0.46875 14.172-2.4219 5.2617-5.9805 6.3086-13.551 6.7891-1.5312 0.10156-3.0312 0.21094-4.4609 0.32031-4.6406 0.35156-11 0.83984-11.359-0.44922-0.10938-0.41016-0.03125-0.78125 0.25-1.1289 0.67187-0.82812 2.5508-1.6406 5.8516-1.4492 3.5195 0.21875 3.8008-2.1914 4.0312-4.1094 0.21094-1.7617 0.44141-3.75 2.4805-5.4805 0.42188-0.35938 0.46875-0.98828 0.12109-1.4102-0.35937-0.42188-0.98828-0.46875-1.4102-0.12109-2.6406 2.2383-2.9492 4.8594-3.1719 6.7812-0.25 2.0898-0.32031 2.4297-1.9297 2.3398-3.4883-0.19922-6.2305 0.60156-7.5195 2.1914-0.60156 0.73828-0.82031 1.6211-0.67969 2.5195-3.7305 0.67188-19.211 1.2188-28.301 0.57031-3.7695-0.26953-3.7695-1.1797-3.7695-1.6211 0-0.058593 0-0.23047 0.26172-0.48047 1.9102-1.8516 10.578-2.25 15.59-2.0781 0.55859 0.058593 1.0195-0.41016 1.0312-0.96094 0.019531-0.55078-0.41016-1.0117-0.96094-1.0312-0.82031-0.03125-5.3203-0.16016-9.5898 0.32031-0.53125-0.57812-2.5508-3.2188-2.7188-10.121-0.17969-7.0781 2.7812-11.129 3.6719-12.191 0.44922 0.23047 1.3398 0.91016 2.3398 2.8789 0.23047 0.44141 0.75 0.64844 1.2188 0.48828 0.050782-0.019531 4.7305-1.5781 9.7812-0.19141 0.42969 0.10938 0.87891-0.058594 1.1211-0.44141 0.91016-1.4688 2.0586-2.8906 2.5898-3.2305 0.76172 0.53906 3.0586 3.7188 3.6289 9.7188 0.039063 0.44141 0.37109 0.80078 0.80859 0.89062 0.14062 0.03125 3.5195 0.62891 7.2188-3.1016 0.67188-0.67188 1.3281-1.4414 2.0195-2.2617 2.9102-3.3984 6.1992-7.25 12.449-7.2695h0.078125c6.7812 0 10.09 3.8281 10.23 3.9883 0.32031 0.37891 0.87109 0.46875 1.2891 0.21094 0.050782-0.03125 4.6602-2.7891 10.809-1.3594 6.3203 1.4805 9.5508 6.8398 8.2305 13.672z"/>
 <path d="m23.789 44.648c-0.55078 0-1.0703 0.51953-1.0703 1.0703s0.51953 1.0703 1.0703 1.0703c0.55078 0 1.0703-0.51953 1.0703-1.0703s-0.51953-1.0703-1.0703-1.0703z"/>
 <path d="m29.352 44.512c-0.55078 0-1.0703 0.51953-1.0703 1.0703s0.51953 1.0703 1.0703 1.0703c0.55078 0 1.0703-0.51953 1.0703-1.0703s-0.51953-1.0703-1.0703-1.0703z"/>
</svg>