<svg xmlns="http://www.w3.org/2000/svg" version="1.1" viewBox="-5.0 -10.0 110.0 135.0">
 <path d="m82.422 38.871c-9.6719-7.5312-23.5-7.6211-26.738-7.5312-1.4883-3.2891-3.8516-5.2305-4.9492-5.9883 0.17188-1.4805 0.33984-4.9297-1.3281-6.8906-0.67188-0.78906-1.5781-1.2305-2.6406-1.2695-3.1992-0.14062-7.2188 3.3281-8.5703 4.6016-2.9883-0.76953-5.3398-0.89062-6.4609-0.87109-0.82812-1.8008-3.4102-6.5391-7.1211-5.4883-2.7305 0.78125-5.0781 5.6797-5.75 7.1992-1.8086 0.80859-8.8086 4.5391-9.1211 13.719-0.14844 4.4297 1.0508 8.1094 3.4219 10.828-4.9609 5.3008-7.75 17.57-1.3086 27.27 3.7109 5.5898 10.719 10.211 15.328 10.211 0.17969 0 0.35938 0 0.53125-0.019531 1.3594-0.10938 2.4492-0.64062 3.2188-1.5391h0.42188c3.2305 0 13.59-0.96094 20.469-12.629 0.28125-0.48047 0.12109-1.0898-0.35156-1.3711-0.46875-0.28125-1.0898-0.12109-1.3711 0.35156-6 10.172-14.781 11.52-18.172 11.641 0.28125-1.4297-0.41016-2.6992-1.4609-3.9297 6.6914-3.6289 9.7695-10.762 9.8984-11.07 0.21094-0.51172-0.019532-1.0898-0.53125-1.3086-0.51172-0.21875-1.0898 0.019532-1.3086 0.53125-0.03125 0.070313-3.0898 7.1406-9.4805 10.34l-0.35938-0.35938c-2.6289-2.6211-5.6094-5.5781-5.0391-10.648 0.058593-0.55078-0.32813-1.0391-0.87891-1.1016-0.53906-0.058594-1.0391 0.32812-1.1016 0.87891-0.67188 6.0195 2.9609 9.6406 5.6211 12.289 2 2 3.1094 3.1914 2.5703 4.4102-0.42188 0.94141-1.1719 1.4414-2.3008 1.5312-3.8984 0.30859-10.59-4.1094-14.031-9.3008-5.7891-8.7188-3.3008-20.039 1.0703-24.738 2.0391 1.7188 4.6797 2.9219 7.8711 3.5 0.55078 0.10156 1.0586-0.26172 1.1602-0.80859 0.10156-0.53906-0.26172-1.0586-0.80859-1.1602-7.3906-1.3281-11.32-6.1992-11.07-13.711 0.30859-9.1094 7.8906-11.969 8.2109-12.078 0.26953-0.10156 0.48047-0.30078 0.58984-0.55859 1-2.3984 3.0781-5.9883 4.6094-6.4219 2.2617-0.64062 4.4102 3.4609 4.9883 4.9492 0.16016 0.41016 0.57812 0.67188 1.0117 0.62891 0.03125 0 2.9688-0.21094 7.0508 0.92188 0.35156 0.10156 0.71875 0 0.96875-0.25 1.2695-1.2617 5.1406-4.5391 7.5-4.4219 0.51172 0.019531 0.89062 0.19922 1.1992 0.57031 1.2188 1.4414 0.98047 4.7617 0.78906 5.9219-0.070313 0.42188 0.12891 0.83984 0.51172 1.0508 0.28125 0.14844 6.8008 3.8516 5.6992 12.801-0.94141 7.6797-7.3281 11.93-13.141 12.148-0.55078 0.019531-0.98047 0.48828-0.96094 1.0391 0.019531 0.53906 0.46094 0.96094 1 0.96094h0.039062c6.6602-0.26172 13.969-5.1211 15.051-13.91 0.30859-2.4805 0.070312-4.6094-0.44922-6.4297 3.9688-0.011719 16.301 0.51172 24.781 7.1094 5.7109 4.4414 10.629 13.59 7.9688 23.191v0.070313c-0.011719 0.03125-0.03125 0.050781-0.039063 0.070312-5.1719 16.969-24.699 18.73-26.91 18.879-4.1016 0.26953-6.2305-0.37109-6.3516-1.8984-0.10156-1.2109-0.28125-3.4609 5.9492-5.1797 13.27-3.6406 15.059-9.6289 15.129-9.8789 0.14844-0.53125-0.16016-1.0703-0.69141-1.2188-0.51953-0.16016-1.0781 0.14844-1.2383 0.67188-0.019531 0.050781-1.7188 5.1992-13.738 8.5-3.0117 0.82812-4.8398 1.8594-5.9297 2.9492-0.019531 0-0.03125-0.011719-0.050781-0.011719-1.7305-0.078125-3.3789-0.32812-4.9219-0.71875-0.53906-0.14062-1.0781 0.19141-1.2188 0.71875-0.14062 0.53906 0.19141 1.0781 0.71875 1.2188 1.3398 0.33984 2.7617 0.57031 4.2305 0.69922-0.28906 0.82812-0.32031 1.6406-0.26172 2.3984 0.26953 3.3008 3.9805 3.8086 6.5781 3.8086 0.76953 0 1.4414-0.039062 1.8984-0.070312 2.3516-0.16016 23.129-2.0391 28.691-20.289v-0.078125c0.019531-0.039062 0.039062-0.070312 0.050781-0.10938 2.9102-10.488-2.4492-20.469-8.6719-25.301z"/>
 <path d="m29.828 34.879c0.30859-0.14062 0.55859-0.39062 0.69141-0.71094 0.14062-0.32812 0.14062-0.69922 0-1.0312-0.12891-0.32812-0.37891-0.57812-0.69922-0.71094-0.32812-0.14062-0.71094-0.12891-1.0391 0.011719-0.30859 0.14062-0.55859 0.39062-0.69922 0.71094-0.12891 0.32031-0.14062 0.67187-0.019531 0.98828 0.12891 0.33984 0.39062 0.60938 0.71875 0.75 0.16016 0.070312 0.32812 0.10156 0.5 0.10156 0.17969 0 0.37109-0.039062 0.53906-0.10938z"/>
 <path d="m35.922 35.621c0.16016 0.070312 0.32812 0.10156 0.5 0.10156 0.51953 0 1.0195-0.30859 1.2305-0.82031 0.28906-0.67969-0.03125-1.4609-0.69922-1.7383-0.67188-0.28125-1.4492 0.039063-1.7383 0.71875-0.28906 0.67969 0.03125 1.4609 0.69922 1.7383z"/>
 <path d="m30.02 42.039c0.058594-0.03125 1.1719-0.51172 2.1211-1.5508 0.46875 0.60938 1.1211 1.2617 1.9102 1.5586 0.12109 0.050781 0.23828 0.070313 0.35938 0.070313 0.39844 0 0.78125-0.23828 0.92969-0.64063 0.19922-0.51953-0.058594-1.0898-0.57812-1.2891-0.67188-0.26172-1.3906-1.3281-1.6797-1.9492-0.17188-0.35156-0.51953-0.60938-0.91016-0.57812-0.39062 0-0.73828 0.23047-0.89844 0.57812-0.60156 1.3008-2 1.9414-2.0391 1.9609-0.51172 0.21875-0.73828 0.80078-0.51953 1.3086 0.21875 0.51172 0.80078 0.73828 1.3086 0.53125z"/>
</svg>