<svg xmlns="http://www.w3.org/2000/svg" version="1.1" viewBox="-5.0 -10.0 110.0 135.0">
 <path d="m57.5 60.109c-4.8906 2.1914-10.309 3.6797-20.859 3.8086-8.1719 0.10938-14.328-1-18.398-3.2891-0.16016-0.21875-0.39844-0.35938-0.66016-0.39062-0.85156-0.53906-1.6094-1.1211-2.25-1.7695-1.3711-1.3789-2.1289-2.8711-2.5508-4.3008 2.4492-0.19922 2.8086-0.42188 2.9688-0.51953 0.46875-0.28906 0.60938-0.91016 0.32031-1.3789-0.28125-0.44922-0.85156-0.60156-1.3008-0.35938-0.28906 0.089844-1.2109 0.19141-2.3789 0.28125-0.12891-1.1094-0.10938-2.1289-0.089844-2.9492v-0.51172c1.0117 0.078125 1.7812 0.17969 2.0117 0.28125 0.17188 0.10938 0.35156 0.16016 0.53906 0.16016 0.32813 0 0.64844-0.16016 0.83984-0.46094 0.30078-0.46875 0.16016-1.0781-0.30859-1.3789-0.42969-0.26953-1.5508-0.46094-2.9219-0.58984 0.55859-3.4219 2.6406-7.5117 6.5117-8.4805 0.53906-0.12891 0.85938-0.67969 0.73047-1.2109-0.12891-0.53906-0.67969-0.85938-1.2109-0.73047-5.0586 1.2617-7.4219 6.3516-8.0312 10.281-0.82031-0.039062-1.6484-0.070312-2.4414-0.089843-0.53125 0-1.0117 0.42188-1.0195 0.98047-0.011719 0.55078 0.42188 1.0117 0.98047 1.0195 0.75 0.019531 1.5508 0.050781 2.3203 0.089843v0.60156c-0.019531 0.82812-0.03125 1.9102 0.10156 3.1094-0.55859 0.03125-1.1406 0.058594-1.6797 0.078125-0.55078 0.019531-0.98047 0.48047-0.96094 1.0391 0.019531 0.53906 0.46094 0.96094 1 0.96094h0.039062c0.73047-0.03125 1.3789-0.058594 1.9609-0.089844 0.46094 1.8203 1.3711 3.7812 3.1602 5.5781 0.48828 0.48828 1.0312 0.94922 1.6094 1.3789-2.0508 1.5391-5.3398 5.0508-6.1016 11.969-0.058594 0.55078 0.33984 1.0391 0.87891 1.1016h0.10938c0.5 0 0.94141-0.37891 0.98828-0.89062 0.78125-7.0781 4.4883-10.102 5.9492-11.02 4.2305 2.3281 10.352 3.5 18.27 3.5h1.0508c10.898-0.14062 16.539-1.6914 21.648-3.9805 0.5-0.23047 0.73047-0.82031 0.5-1.3203s-0.80859-0.73047-1.3203-0.5z"/>
 <path d="m36.02 46.84c0-0.73047-0.58984-1.3203-1.3203-1.3203s-1.3203 0.58984-1.3203 1.3203c0 0.73047 0.58984 1.3203 1.3203 1.3203s1.3203-0.58984 1.3203-1.3203z"/>
 <path d="m41.27 46.52c0 0.73047 0.58984 1.3203 1.3203 1.3203 0.73047 0 1.3203-0.58984 1.3203-1.3203s-0.58984-1.3203-1.3203-1.3203c-0.73047 0-1.3203 0.58984-1.3203 1.3203z"/>
 <path d="m45.059 40.898c-0.10156-0.53906-0.62109-0.89844-1.1719-0.80078-1.0117 0.19141-2.25 1.1406-2.4883 1.3281-0.42969 0.33984-0.51172 0.96875-0.16016 1.3984 0.19922 0.25 0.48828 0.37891 0.78906 0.37891 0.21875 0 0.44141-0.070313 0.62109-0.21094 0.42187-0.32813 1.2188-0.85938 1.6211-0.92969 0.53906-0.10156 0.89844-0.62109 0.80078-1.1719z"/>
 <path d="m67.191 51.262c0.23047-1.3906 0.46094-3.0508 0.46094-4.3398v-0.17188c0.58984-0.03125 1.0391-0.019531 1.2109 0.019531 0.53125 0.14062 1.0781-0.17188 1.2188-0.71094 0.14062-0.53125-0.17188-1.0781-0.71094-1.2188-0.39062-0.10156-1.0781-0.12109-1.8906-0.089844-1.0586-7.4102-7.3906-10.039-9.5898-10.73-0.19922-2.5586-1.2305-10.121-5.8906-9.9883-5.1289 0.14062-8.6602 5.7695-9.7383 7.7383-2.1602-0.26172-4.8516-0.10156-6-0.019531-1.4492-1.8711-5.7812-7.0508-9.0312-7.0508h-0.058594c-6.0586 0.12891-7.6211 10.078-7.6914 10.5-0.078125 0.55078 0.28906 1.0508 0.83984 1.1406 0.53906 0.078125 1.0508-0.28906 1.1406-0.83984 0.37109-2.4219 2.1094-8.7188 5.75-8.8008h0.03125c1.8906 0 5.6602 3.8984 7.7617 6.6914 0.21094 0.28125 0.53906 0.42969 0.89062 0.39844 0.039063 0 4.2305-0.39844 6.75 0.058594 0.44141 0.070313 0.87891-0.14844 1.0781-0.55078 0.03125-0.070313 3.4688-7.1406 8.3281-7.2695 2.8281-0.10156 3.7812 6.5 3.8789 8.8086 0.019531 0.46094 0.35156 0.83984 0.80078 0.94141 0.32812 0.070312 7.6016 1.7109 8.7383 9.1211-1.1484 0.10937-2.2188 0.25-2.75 0.32031-0.55078 0.070312-0.92969 0.57812-0.85938 1.1211 0.070313 0.5 0.5 0.87109 0.98828 0.87109h0.12891c0.85938-0.12109 1.7891-0.21875 2.6484-0.30078v0.03125c0 1.3906-0.32812 3.4219-0.51953 4.5117-1.7695 0.42188-3.3984 1.5312-4.6289 3.1992-1.8203 2.4609-1.1289 6.3281 0.23047 7.7305 0.37891 0.39844 1.0195 0.41016 1.4102 0.019532 0.39062-0.39062 0.41016-1.0195 0.019531-1.4102-0.73047-0.75-1.2617-3.5117-0.050781-5.1484 1.2109-1.6406 2.8906-2.5781 4.6211-2.5781h0.03125c1.5586 0 3.0117 0.78906 3.9805 2.1289 2.8711 3.9883 3.9219 13.672-2.9492 21.77-0.35938 0.42188-0.30859 1.0508 0.12109 1.4102 0.19141 0.16016 0.42188 0.23828 0.64844 0.23828 0.28125 0 0.57031-0.12109 0.76172-0.35156 7.6406-9.0117 6.3789-19.59 3.0508-24.23-1.2617-1.75-3.1211-2.8008-5.1719-2.9414z"/>
 <path d="m65.121 27.328c0.10156 0.03125 0.19141 0.039063 0.28906 0.039063 0.42969 0 0.82812-0.28125 0.96094-0.71094l1.25-4.1484c0.16016-0.53125-0.14062-1.0898-0.67188-1.25-0.53125-0.16016-1.0898 0.14063-1.25 0.67188l-1.25 4.1484c-0.16016 0.53125 0.14062 1.0898 0.67188 1.25z"/>
 <path d="m70.828 30.59c0.26953 0 0.53906-0.10938 0.73047-0.32031l2.5508-2.75c0.37891-0.39844 0.35156-1.0391-0.050781-1.4102-0.39844-0.37109-1.0391-0.35156-1.4102 0.050781l-2.5508 2.75c-0.37891 0.39844-0.35156 1.0391 0.050782 1.4102 0.19141 0.17969 0.44141 0.26953 0.67969 0.26953z"/>
 <path d="m92.359 42.23c-0.050781-0.019531-5.3594-2.0781-8.5586-6.9805-0.17969-0.26953-0.51172-0.46094-0.82812-0.48047-0.58984-0.03125-0.89844 0.37109-1.2109 0.75-0.71875 0.89062-2.6406 3.2695-8.0781 4.6016-0.28906 0.070312-0.53906 0.26953-0.67188 0.53906-0.12891 0.26953-0.12891 0.58984 0 0.85938 0.03125 0.050781 2.5703 5.4883 2.5703 8.4414 0 0.30859 0.14062 0.60156 0.37891 0.78906 0.23828 0.19141 0.55859 0.26172 0.85156 0.19141 1.6289-0.39062 6.6211-1.0508 8.1016 1.0117 0.19141 0.26172 0.48828 0.42188 0.80859 0.42188h0.10156c0.35938-0.039062 0.67188-0.26172 0.80859-0.58984 0.80078-1.8086 3.3984-6.7188 5.7305-7.6719 0.37891-0.16016 0.62891-0.53125 0.62109-0.94141 0-0.41016-0.26172-0.78125-0.64062-0.92188zm-6.9375 7.4492c-1.3594-0.92969-3.1914-1.1992-4.8516-1.1992-1.1797 0-2.2891 0.14062-3.0781 0.26953-0.32813-2.4297-1.5117-5.4219-2.1914-7.0117 4.3906-1.2891 6.5-3.2305 7.5312-4.3984 2.3281 3.0781 5.2891 4.9805 7.1211 5.9492-1.9883 1.7109-3.6602 4.6719-4.5312 6.3789z"/>
</svg>