<svg xmlns="http://www.w3.org/2000/svg" version="1.1" viewBox="-5.0 -10.0 110.0 135.0">
 <path d="m90.879 78.59c-3.5703-6.5898-7.3984-18.199-8.9219-23.359-0.57812-2.5-5.9219-24.379-14.781-24.379-2.3984 0-4.2383 0.85938-5.4688 2.5508-3.2617 4.4883-1.2617 13.73 1 20.68 0.050781 0.16016 0.089844 0.26953 0.10938 0.32812 0.070313 0.33984 0.30859 0.62891 0.66016 0.73828 0.51953 0.17969 1.0898-0.10156 1.2695-0.62891 0.10938-0.32031 0.050781-0.5-0.12891-1.0586-2.9414-9.0781-3.4102-15.961-1.2812-18.891 0.83984-1.1602 2.1016-1.7305 3.8516-1.7305 6.1719 0 11.352 16.48 12.84 22.891 1.5508 5.2891 5.4492 17.059 9.0898 23.801 0.17969 0.32812 0.53125 0.51953 0.87891 0.51953 0.16016 0 0.32031-0.039062 0.46875-0.12109 0.48828-0.26172 0.67188-0.87109 0.39844-1.3594z"/>
 <path d="m25.199 29.281h0.10156c0.51172 0 0.94141-0.37891 0.98828-0.89844 0.33984-3.3086 1.8984-10.219 4.5781-10.469 2.9219-0.26953 6.7812 4.0195 8.3281 6.0898-1.8008 0.60156-2.7617 1.2812-2.8594 1.3516-0.44141 0.32812-0.53125 0.94922-0.19922 1.3906 0.32812 0.44141 0.94922 0.53906 1.3984 0.21094 0.050782-0.039062 5.2305-3.6914 15.422-0.64844 0.44141 0.12891 0.92188-0.050782 1.1484-0.44922 1.75-2.9883 5.3789-7.6992 7.7383-7.6992h0.050781c2.0898 0.058594 4.6211 6.2188 5.6602 10.359 0.10937 0.44922 0.51953 0.76172 0.96875 0.76172 0.078124 0 0.16016 0 0.25-0.03125 0.53906-0.12891 0.85937-0.67969 0.73047-1.2109-0.48828-1.9609-3.1797-11.75-7.5508-11.871h-0.10156c-3.7188 0-7.7383 5.8984-9.0703 8.0312-5.0117-1.3789-8.8594-1.25-11.578-0.69922-0.03125-0.10156-0.058594-0.19922-0.12109-0.28125-0.55859-0.78906-5.6094-7.7109-10.398-7.2812-5.0391 0.46094-6.2617 11.051-6.3789 12.262-0.058594 0.55078 0.33984 1.0391 0.89062 1.1016z"/>
 <path d="m63.609 56.941c-2.6602 3.1289-9.6914 5.3711-17.488 5.5781-8.5391 0.21875-15.871-2-19.602-5.9609-4.7812-5.0703-5.3789-10.539-5.0391-14.238 0.48047-5.1992 2.9102-9.0312 3.7891-9.6797 0.44922-0.32812 0.53906-0.94922 0.21875-1.3984-0.32812-0.44922-0.94922-0.53906-1.3984-0.21875-0.76953 0.55859-1.7383 1.8984-2.6016 3.7188-1.6719-2.4492-3.5117-4.6914-6.5117-4.3086-2.1406 0.26953-3.7383 1.2617-4.75 2.9492-3.6484 6.1094 1.8086 20.199 4.75 27.77l0.42969 1.1016c2.5703 6.6719 6.1289 13.852 10.59 21.34 0.19141 0.30859 0.51953 0.48828 0.85938 0.48828 0.17188 0 0.35156-0.039062 0.51172-0.14062 0.46875-0.28125 0.62891-0.89844 0.35156-1.3711-4.3984-7.3984-7.9102-14.48-10.441-21.039l-0.42969-1.1094c-2.6094-6.7383-8.0391-20.75-4.8906-26.02 0.69141-1.1484 1.7617-1.8008 3.2812-1.9883 2.0391-0.23828 3.3008 1.4688 5.1914 4.3086 0.050781 0.078125 0.12891 0.14062 0.19922 0.19922-0.53125 1.5586-0.94922 3.3281-1.1211 5.2109-0.37891 4.1016 0.28125 10.18 5.5703 15.789 3.9297 4.1719 11.309 6.6016 19.898 6.6016 0.39844 0 0.80078 0 1.1992-0.019532 8.4688-0.21875 15.91-2.6914 18.961-6.2812 0.35938-0.42188 0.30859-1.0508-0.12109-1.4102-0.42188-0.35938-1.0508-0.30078-1.4102 0.12109z"/>
 <path d="m39.281 42.031c-0.71094 0-1.2812 0.57812-1.2812 1.2812 0 0.69922 0.57812 1.2812 1.2812 1.2812 0.69922 0 1.2812-0.57812 1.2812-1.2812 0-0.69922-0.57812-1.2812-1.2812-1.2812z"/>
 <path d="m48.109 43.031c0 1.707-2.5586 1.707-2.5586 0s2.5586-1.707 2.5586 0z"/>
 <path d="m44.059 54.691h0.089844c0.53906-0.019531 1.5508-0.26172 2.1719-1.6484 0.73047-1.6289 0.62891-4.2891-0.19922-5.2812-0.35938-0.42969-0.87109-0.60938-1.3789-0.48047-0.80859 0.19922-2.75 0.21875-3.2812 0.16016-0.17188-0.070312-0.35938-0.10156-0.55078-0.070312-0.53906 0.078125-0.91016 0.58984-0.83984 1.1289v0.03125c0.23828 1.4609 1.2305 6.1602 3.9805 6.1602zm0.62109-5.3828c0.17187 0.67188 0.21094 2.1406-0.23828 3.0117-0.12109 0.23828-0.25 0.35938-0.37109 0.37109-0.55078 0.050782-1.2891-1.4102-1.75-3.2188 0.82813 0 1.7617-0.078125 2.3594-0.16016z"/>
</svg>