<svg xmlns="http://www.w3.org/2000/svg" version="1.1" viewBox="-5.0 -10.0 110.0 135.0">
 <path d="m84.012 67.371c-4.9609 0.12891-6.2812-3.9219-6.8516-7.4609-0.42969-2.6914-1.4219-8.2891-1.7109-9.9414 7.4492-8.6211 10.012-16.969 9.2617-21.621 0.82812-0.30078 3.6289-1.3984 5.2383-3.4688 1.6992-2.1797 2.4219-5.5703 0.41016-7.5586-1.1484-1.1484-2.4297-1.6914-3.7188-1.6094-1.1211 0.058593-2.0312 0.57031-2.6484 1.0508-0.76953-0.69922-1.8711-1.1484-3.0312-1.1992-1.8086-0.078125-3.4219 0.83984-4.4297 2.5-1.6484 2.6992-0.19141 5.3281 0.89062 6.7188-0.89844 0.55078-1.6797 1.2617-2.2617 1.8789-0.96875-7.8008-6.7188-10.391-8.5703-11.02-0.94141-2.7812-3.0781-8.1602-5.6602-8.6211-2.1094-0.37109-4.4219 2.5898-6.3984 5.5391-0.12109 0.17188-0.19922 0.30078-0.25 0.35938-0.35156 0.42188-0.30078 1.0391 0.10938 1.3906 0.42188 0.35938 1.0508 0.32031 1.4102-0.10156 0.050781-0.058593 0.19141-0.25 0.37891-0.53906 3.1914-4.7305 4.2812-4.7109 4.3984-4.6914 0.91016 0.16016 2.7617 3.1094 4.2695 7.7617 0.10938 0.32812 0.39062 0.58984 0.73047 0.67188 0.37109 0.078125 8.9883 2.2109 7.5781 14.039-0.58984 4.9688-4.2109 8.5898-10.762 10.762-0.51953 0.17187-0.80859 0.73828-0.62891 1.2617 0.14062 0.42188 0.53125 0.69141 0.94922 0.69141 0.10156 0 0.21094-0.019531 0.30859-0.050781 7.2383-2.3984 11.43-6.6992 12.121-12.422 0.089844-0.78125 0.14062-1.5195 0.16016-2.2305 0.16016-0.070313 0.30078-0.17188 0.41016-0.32813 0.03125-0.039062 2.9883-4.3086 5.5898-2.9805 0.87891 0.44922 1.25 1.5117 1.4102 2.3203 0.76953 4.0391-1.7383 12.191-9.0781 20.531-0.19922 0.23047-0.28906 0.53906-0.23047 0.83984 0.011719 0.070312 1.2891 7.2383 1.7891 10.379 0.98047 6.1797 3.9297 9.2695 8.8711 9.1406h0.16016c3.3906 0 3.8906 2.5312 3.9609 3.3203 0.12109 1.3281-0.25 3.3711-4.9219 5.6016-4.3906 2.1016-9.75 2.5898-13.32 1.2109-2.3789-0.92188-5.3281-3-7.4883-4.5312l-0.23828-0.17188c-2.9492-2.0781-7.5586-2.4492-10.73-0.85156-2.4609 1.2383-3.8516 3.5195-3.9219 6.4102-0.011718 0.48047 0.070313 1.1094 0.17188 1.9219 0.28125 2.1992 0.69922 5.5195-0.66016 7.4297-0.80859 1.1406-4.2188 2.1211-7.1094 0.21094-6.5195-4.2812-9.4297-17.48-10.129-24.602l-1.0195-10.441c-0.019531-0.23047-0.12109-0.44141-0.28125-0.60156-0.058593-0.058593-5.7891-5.9609-8.0898-12.031-1.9609-5.1797-2.4688-10.531-1.2383-13.012 0.37109-0.75 0.87891-1.2188 1.5586-1.4219 3.8398-1.1406 4.8594 0.89844 6.8008 5.6016 1.3008 3.1484 2.9102 7.0586 6.3008 10.328 0.39844 0.37891 1.0312 0.37109 1.4102-0.019531 0.37891-0.39844 0.37109-1.0312-0.019531-1.4102-3.0781-2.9805-4.5508-6.5312-5.8398-9.6602-0.85938-2.0898-1.6992-4.1094-2.9805-5.4688 0.019532-0.71094 0.42188-3.0508 4.3984-6.0312 0.57812-0.17969 0.69141-0.69922 1-2.25 0.35938-1.7812 1.4492-7.2109 2.9492-7.7188 0.62109-0.21094 2.3008 0.14062 6.5391 4.8789 0.67969 0.76172 0.87891 0.98047 1.4805 0.94141 3.6484-0.26953 8.3203-0.48047 10.48-0.25 0.55859 0.050781 1.0391-0.33984 1.1016-0.89062 0.058594-0.55078-0.33984-1.0391-0.89062-1.1016-2.6914-0.28906-8.1914 0.050782-10.461 0.21094-0.070312-0.070313-0.14062-0.16016-0.23047-0.25-2.8516-3.1719-6.1016-6.3008-8.6719-5.4414-2.3906 0.80859-3.4609 5.1797-4.2695 9.2188-0.070313 0.37109-0.16016 0.76953-0.21094 1.0312-3.4297 2.5703-4.6289 4.8398-5.0391 6.3516-0.76172-0.32031-1.6484-0.44141-2.6992-0.32812 0.46875-1.6992 0.98828-4.5703-0.19922-6.5195-0.46094-0.75-1.3984-1.6914-3.2109-1.8711-2-0.19922-3.5 0.23828-4.4688 1.2891-0.75 0.82031-0.98828 1.8398-1.0391 2.6211-1.0312 0.050782-2.5117 0.33984-3.5195 1.3984-0.89062 0.92969-1.2188 2.2188-0.96094 3.8203 0.19922 1.2812 0.82812 2.2891 1.8711 3 1.3086 0.89844 3.0781 1.1406 4.5898 1.1406 0.67969 0 1.3008-0.050781 1.8086-0.10938-0.75 3.7383 0.39063 8.9102 1.8008 12.629 2.1914 5.7891 7.1094 11.219 8.2812 12.469l0.98047 10.102c0.19922 2.0586 2.2188 20.289 11.02 26.078 1.5 0.98828 3.1914 1.4219 4.7695 1.4219 2.1797 0 4.1406-0.82031 5.0781-2.1406 1.8086-2.5391 1.3281-6.3281 1.0195-8.8398-0.089843-0.69141-0.16016-1.2891-0.16016-1.6211 0.058594-2.7109 1.5586-4.0312 2.8203-4.6602 2.5117-1.2695 6.3203-0.96094 8.6797 0.69922l0.23828 0.17188c2.2383 1.5781 5.3203 3.75 7.9297 4.7617 4.1211 1.5898 9.9688 1.0898 14.91-1.2812 4.3398-2.0781 6.3203-4.5586 6.0508-7.5898-0.21875-2.4297-1.9414-5.1992-6.1719-5.1289z"/>
 <path d="m47.148 28.141c-0.019532-0.62891-0.57813-1.1289-1.1914-1.1094-0.30859 0.011719-0.58984 0.14062-0.80078 0.35938-0.21094 0.23047-0.32031 0.51953-0.30859 0.82812 0.019532 0.62109 0.53906 1.1094 1.1602 1.1094h0.03125c0.64063-0.019531 1.1289-0.55859 1.1094-1.1914z"/>
 <path d="m53.988 27.922c-0.019531-0.62109-0.53906-1.1094-1.1602-1.1094h-0.03125c-0.62891 0.019531-1.1289 0.55859-1.1094 1.1797 0 0.30859 0.12891 0.60156 0.35938 0.80859 0.21875 0.21094 0.5 0.32031 0.80078 0.32031h0.039063c0.30859-0.011719 0.58984-0.14062 0.80078-0.35938 0.21094-0.23047 0.32031-0.51953 0.30859-0.82812z"/>
 <path d="m47.352 34.551c0.17969-0.019531 1.25-0.14062 2.1484-0.73047 0.48828 0.5 1.2188 0.87891 2.2383 0.87891h0.21094c0.55078-0.03125 0.98047-0.48828 0.94922-1.0508-0.03125-0.55078-0.51172-0.98047-1.0508-0.94922-0.87109 0.039062-1.1094-0.39062-1.1484-0.73828-0.03125-0.48047-0.41016-0.87109-0.89062-0.92188-0.48828-0.050781-0.92969 0.25-1.0703 0.71094-0.14844 0.5-1.1602 0.76953-1.6016 0.80859-0.55078 0.050781-0.94922 0.53906-0.89844 1.0898 0.050781 0.55078 0.53125 0.96094 1.0898 0.89844z"/>
</svg>